<svg width="300" height="300" viewBox="0 0 300 300" fill="none" xmlns="http://www.w3.org/2000/svg">
    <path d="M150 0C169.698 2.349e-07 189.204 3.87987 207.403 11.4181C225.601 18.9563 242.137 30.0052 256.066 43.934C269.995 57.8628 281.044 74.3987 288.582 92.5975C296.12 110.796 300 130.302 300 150L225 150C225 140.151 223.06 130.398 219.291 121.299C215.522 112.199 209.997 103.931 203.033 96.967C196.069 90.0026 187.801 84.4781 178.701 80.709C169.602 76.9399 159.849 75 150 75V0Z" fill="#B6E359"/>
    <path d="M150 0C126.217 -2.83606e-07 102.775 5.65508 81.6086 16.4987C60.4417 27.3422 42.1566 43.0635 28.262 62.3652L89.131 106.183C96.0783 96.5317 105.221 88.6711 115.804 83.2493C126.388 77.8275 138.109 75 150 75V0Z" fill="#54D2FA"/>
    <path d="M28.2533 62.3773C14.4255 81.5902 5.34118 103.803 1.74301 127.199C-1.85515 150.596 0.135018 174.512 7.55081 196.992L78.7754 173.496C75.0675 162.256 74.0724 150.298 75.8715 138.6C77.6706 126.901 82.2128 115.795 89.1266 106.189L28.2533 62.3773Z" fill="#A57BD7"/>
    <path d="M7.45761 196.708C17.3214 226.81 36.4617 253.017 62.1352 271.572L106.068 210.786C93.2309 201.508 83.6607 188.405 78.7288 173.354L7.45761 196.708Z" fill="#31A3F9"/>
    <path d="M61.999 271.474C81.1688 285.361 103.353 294.514 126.738 298.185C150.124 301.856 174.046 299.94 196.548 292.595L173.274 221.297C162.023 224.97 150.062 225.928 138.369 224.093C126.677 222.257 115.584 217.681 106 210.737L61.999 271.474Z" fill="#F2EF4F"/>
    <path d="M196.376 292.651C226.501 282.857 252.752 263.778 271.367 238.148L210.684 194.074C201.376 206.889 188.25 216.429 173.188 221.325L196.376 292.651Z" fill="#E75353"/>
    <path d="M271.339 238.187C289.962 212.563 299.995 181.7 300 150.023L225 150.012C224.998 165.85 219.981 181.281 210.669 194.093L271.339 238.187Z" fill="#F7A652"/>
</svg>
