<svg xmlns="http://www.w3.org/2000/svg" display="none">
    <symbol id="menu-icon1" viewBox="0 0 24 24">
        <path d="M19 8.41V20C19 20.2652 18.8946 20.5196 18.7071 20.7071C18.5196 20.8946 18.2652 21 18 21H6C5.73478 21 5.48043 20.8946 5.29289 20.7071C5.10536 20.5196 5 20.2652 5 20V4C5 3.73478 5.10536 3.48043 5.29289 3.29289C5.48043 3.10536 5.73478 3 6 3H13.59C13.8523 3.0011 14.1037 3.10526 14.29 3.29L18.71 7.71C18.8947 7.89626 18.9989 8.14766 19 8.41Z"/>
    </symbol>

    <symbol id="menu-icon2" viewBox="0 0 24 24">
        <path d="M8 21H4C3.73478 21 3.48043 20.8946 3.29289 20.7071C3.10536 20.5196 3 20.2652 3 20V16"/>
        <path d="M16 21H20C20.2652 21 20.5196 20.8946 20.7071 20.7071C20.8946 20.5196 21 20.2652 21 20V16"/>
        <path d="M3 16V20C3 20.2652 3.10536 20.5196 3.29289 20.7071C3.48043 20.8946 3.73478 21 4 21H8"/>
        <path d="M3 8V4C3 3.73478 3.10536 3.48043 3.29289 3.29289C3.48043 3.10536 3.73478 3 4 3H8"/>
        <path d="M21 8V4C21 3.73478 20.8946 3.48043 20.7071 3.29289C20.5196 3.10536 20.2652 3 20 3H16"/>
        <path d="M8.00002 16C9.10786 16.9678 10.529 17.5011 12 17.5011C13.471 17.5011 14.8922 16.9678 16 16M12 7V10C12 11 12 13 10 13L12 7ZM8.00002 9V7V9ZM16 9V7V9Z"/>
    </symbol>

    <symbol id="menu-icon3" viewBox="0 0 24 24">
        <path d="M20.3199 14.48L15.7899 15.99C13.3296 16.809 10.6702 16.809 8.2099 15.99L3.6799 14.48C3.47291 14.4104 3.2944 14.275 3.17161 14.0944C3.04882 13.9139 2.98851 13.6981 2.9999 13.48V7.25H20.9999V13.53C21.0004 13.7396 20.9351 13.9442 20.8131 14.1146C20.691 14.2851 20.5185 14.4129 20.3199 14.48Z"/>
        <path d="M19.8302 14.64L19.1102 20.37C19.0807 20.6139 18.9624 20.8384 18.778 21.0007C18.5936 21.163 18.3558 21.2518 18.1102 21.25H5.88016C5.63448 21.2518 5.39674 21.163 5.21231 21.0007C5.02787 20.8384 4.90963 20.6139 4.88016 20.37L4.16016 14.64"/>
        <path d="M11 12.25H13" stroke="#F6B52E"/>
        <path d="M10 3.25H14C14.7956 3.25 15.5587 3.56607 16.1213 4.12868C16.6839 4.69129 17 5.45435 17 6.25V7.25H7V6.25C7 5.45435 7.31607 4.69129 7.87868 4.12868C8.44129 3.56607 9.20435 3.25 10 3.25V3.25Z"/>
    </symbol>

    <symbol id="menu-icon4" viewBox="0 0 24 24">
        <path fill-rule="evenodd" clip-rule="evenodd"
              d="M5.07087 3.99923C4.81676 3.98931 4.56743 4.07023 4.36756 4.22747C4.17472 4.37919 4.04009 4.59239 3.9858 4.83112C3.99514 4.88602 4 4.94244 4 4.99999V5.24048C4.00204 5.24872 4.00419 5.25694 4.00644 5.26514C4.04537 5.40684 4.11505 5.53821 4.21053 5.64992C4.30601 5.76163 4.42493 5.85092 4.55884 5.91144C4.69274 5.97197 4.83834 6.00224 4.98528 6.00009L5.00264 5.99999H15.9999V3.99999H5.10985C5.09685 3.99999 5.08386 3.99973 5.07087 3.99923ZM4 7.83882C4.32315 7.94932 4.66346 8.00406 5.00631 7.99999L19 7.99999V11H17C15.8954 11 15 11.8954 15 13V15C15 16.1046 15.8954 17 17 17H19V20H5C4.73478 20 4.48043 19.8946 4.29289 19.7071C4.10536 19.5196 4 19.2652 4 19V7.83882ZM21 16.7324V20C21 20.5304 20.7893 21.0391 20.4142 21.4142C20.0391 21.7893 19.5304 22 19 22H5C4.20435 22 3.44129 21.6839 2.87868 21.1213C2.31607 20.5587 2 19.7956 2 19V5.41844C1.95669 5.11082 1.96132 4.79754 2.01443 4.48988C2.016 4.48079 2.01769 4.47172 2.01951 4.46268C2.16347 3.74739 2.55749 3.10675 3.13093 2.65561C3.69876 2.20888 4.40577 1.97687 5.12744 1.99999H15.9999C16.5303 1.99999 17.039 2.2107 17.4141 2.58577C17.7891 2.96085 17.9999 3.46956 17.9999 3.99999V5.99999H19C19.5304 5.99999 20.0391 6.2107 20.4142 6.58578C20.7893 6.96085 21 7.46956 21 7.99999V11.2676C21.5978 11.6134 22 12.2597 22 13V15C22 15.7403 21.5978 16.3866 21 16.7324ZM20 13H17V15H20V13Z"/>
    </symbol>

    <symbol id="menu-icon5" viewBox="0 0 24 24">
        <path fill-rule="evenodd" clip-rule="evenodd"
              d="M10 2.99998C10 2.61196 9.77554 2.25897 9.42416 2.09439C9.07277 1.92981 8.6579 1.98336 8.35982 2.23176L2.35982 7.23176C2.13182 7.42175 2 7.7032 2 7.99998C2 8.29676 2.13182 8.57821 2.35982 8.7682L8.35982 13.7682C8.6579 14.0166 9.07277 14.0702 9.42416 13.9056C9.77554 13.741 10 13.388 10 13V11H13.5C14.163 11 14.7989 11.2634 15.2678 11.7322C15.7366 12.2011 16 12.8369 16 13.5C16 14.163 15.7366 14.7989 15.2678 15.2677C14.7989 15.7366 14.163 16 13.5 16L3 16C2.44772 16 2 16.4477 2 17C2 17.5523 2.44772 18 3 18H13.5C14.6935 18 15.8381 17.5259 16.682 16.682C17.5259 15.838 18 14.6935 18 13.5C18 12.3065 17.5259 11.1619 16.682 10.318C15.8381 9.47409 14.6935 8.99998 13.5 8.99998H9C8.44772 8.99998 8 9.4477 8 9.99998V10.8649L4.56205 7.99998L8 5.13502V5.99899C8 5.99932 8 5.99965 8 5.99998C8 6.00031 8 6.00064 8 6.00097V6.0415C8 6.59378 8.44772 7.0415 9 7.0415C9.09941 7.0415 9.19543 7.02699 9.28606 6.99998H13.5C15.2239 6.99998 16.8772 7.6848 18.0962 8.90379C19.3152 10.1228 20 11.7761 20 13.5C20 15.2239 19.3152 16.8772 18.0962 18.0962C16.8772 19.3152 15.2239 20 13.5 20H3C2.44772 20 2 20.4477 2 21C2 21.5523 2.44772 22 3 22H13.5C15.7543 22 17.9163 21.1044 19.5104 19.5104C21.1045 17.9163 22 15.7543 22 13.5C22 11.2456 21.1045 9.08363 19.5104 7.48957C17.9163 5.89551 15.7543 4.99998 13.5 4.99998L10 4.99998V2.99998Z"/>
    </symbol>

    <symbol id="menu-icon6" viewBox="0 0 24 24">
        <path fill-rule="evenodd" clip-rule="evenodd"
              d="M13.0001 16L13.0001 5.41421L15.293 7.70711C15.6835 8.09763 16.3166 8.09763 16.7072 7.70711C17.0977 7.31658 17.0977 6.68342 16.7072 6.29289L12.7072 2.29289C12.6113 2.19702 12.5008 2.12468 12.3828 2.07588C12.2649 2.02699 12.1357 2 12.0001 2C11.725 2 11.4759 2.11106 11.2951 2.29078L11.293 2.29289L11.2926 2.29329L7.29295 6.29289C6.90243 6.68342 6.90243 7.31658 7.29295 7.70711C7.68348 8.09763 8.31664 8.09763 8.70717 7.70711L11.0001 5.41421L11.0001 16C11.0001 16.5523 11.4478 17 12.0001 17C12.5523 17 13.0001 16.5523 13.0001 16ZM19.0001 16C19.0001 15.4477 19.4478 15 20.0001 15C20.5523 15 21.0001 15.4477 21.0001 16L21.0001 20C21.0001 20.0242 20.9992 20.0483 20.9974 20.0724C20.9579 20.6175 20.7054 21.1251 20.2945 21.4855C19.8922 21.8384 19.3696 22.0224 18.8357 22L5.16446 22C4.63055 22.0224 4.10797 21.8384 3.7056 21.4855C3.29475 21.1251 3.04224 20.6175 3.00269 20.0724C3.00094 20.0483 3.00006 20.0242 3.00006 20L3.00006 16C3.00006 15.4477 3.44778 15 4.00006 15C4.55235 15 5.00006 15.4477 5.00006 16L5.00006 19.9429C5.00417 19.9579 5.0126 19.9716 5.02448 19.982C5.04028 19.9958 5.0609 20.0029 5.08188 20.0017C5.10126 20.0006 5.12066 20 5.14006 20L18.8601 20C18.8795 20 18.8989 20.0006 18.9182 20.0017C18.9392 20.0029 18.9598 19.9958 18.9757 19.982C18.9875 19.9716 18.996 19.9579 19.0001 19.9429L19.0001 16Z"/>
    </symbol>

    <symbol id="menu-icon7" viewBox="0 0 24 24">
        <path fill-rule="evenodd" clip-rule="evenodd"
              d="M5.00015 16C5.00015 15.4477 4.55244 15 4.00015 15C3.44787 15 3.00015 15.4477 3.00015 16L3.00015 20C3.00015 20.0241 3.00103 20.0483 3.00278 20.0724C3.04233 20.6175 3.29483 21.1251 3.70569 21.4855C4.10806 21.8384 4.63064 22.0224 5.16454 22L18.8358 22C19.3697 22.0224 19.8922 21.8384 20.2946 21.4855C20.7055 21.1251 20.958 20.6175 20.9975 20.0724C20.9993 20.0483 21.0002 20.0241 21.0002 20L21.0002 16C21.0002 15.4477 20.5524 15 20.0002 15C19.4479 15 19.0002 15.4477 19.0002 16L19.0002 19.9429C18.996 19.9579 18.9876 19.9716 18.9757 19.982C18.9599 19.9958 18.9393 20.0029 18.9183 20.0017C18.899 20.0006 18.8796 20 18.8602 20L5.14015 20C5.12075 20 5.10134 20.0006 5.08197 20.0017C5.06099 20.0029 5.04037 19.9958 5.02456 19.982C5.01269 19.9716 5.00426 19.9579 5.00015 19.9429L5.00015 16ZM12.9999 3L12.9999 13.5858L15.2928 11.2929C15.6834 10.9024 16.3165 10.9024 16.707 11.2929C17.0976 11.6834 17.0976 12.3166 16.707 12.7071L12.707 16.7071C12.6112 16.803 12.5007 16.8753 12.3827 16.9241C12.2648 16.973 12.1355 17 11.9999 17C11.7249 17 11.4758 16.8889 11.295 16.7092L11.2928 16.7071L11.2924 16.7067L7.29283 12.7071C6.90231 12.3166 6.90231 11.6834 7.29283 11.2929C7.68336 10.9024 8.31652 10.9024 8.70705 11.2929L10.9999 13.5858L10.9999 3C10.9999 2.44771 11.4477 2 11.9999 2C12.5522 2 12.9999 2.44771 12.9999 3Z"/>
    </symbol>

    <symbol id="menu-icon8" viewBox="0 0 24 24">
        <path fill-rule="evenodd" clip-rule="evenodd"
              d="M4.36756 4.22747C4.56743 4.07023 4.81676 3.98931 5.07087 3.99923C5.08386 3.99973 5.09685 3.99999 5.10985 3.99999H15.9999V5.99999H5.00264L4.98528 6.00009C4.83834 6.00224 4.69274 5.97197 4.55884 5.91144C4.42493 5.85092 4.30601 5.76163 4.21053 5.64992C4.11505 5.53821 4.04537 5.40684 4.00644 5.26514C4.00419 5.25694 4.00204 5.24872 4 5.24048V4.99999C4 4.94244 3.99514 4.88602 3.9858 4.83112C4.04009 4.59239 4.17472 4.37919 4.36756 4.22747ZM5.00631 7.99999C4.66346 8.00406 4.32315 7.94932 4 7.83882V19C4 19.2652 4.10536 19.5196 4.29289 19.7071C4.48043 19.8946 4.73478 20 5 20H19V19.5C19 19.2239 19.2239 19 19.5 19H20.5C20.7761 19 21 19.2239 21 19.5V20C21 20.5304 20.7893 21.0391 20.4142 21.4142C20.0391 21.7893 19.5304 22 19 22H5C4.20435 22 3.44129 21.6839 2.87868 21.1213C2.31607 20.5587 2 19.7956 2 19V5.41844C1.95669 5.11082 1.96132 4.79754 2.01443 4.48988C2.016 4.48079 2.01769 4.47172 2.01951 4.46268C2.16347 3.74739 2.55749 3.10675 3.13093 2.65561C3.69876 2.20888 4.40577 1.97687 5.12744 1.99999H15.9999C16.5303 1.99999 17.039 2.2107 17.4141 2.58577C17.7891 2.96085 17.9999 3.46956 17.9999 3.99999V5.99999H19C19.5304 5.99999 20.0391 6.2107 20.4142 6.58578C20.7893 6.96085 21 7.46956 21 7.99999V8.49999C21 8.77613 20.7761 8.99999 20.5 8.99999H19.5C19.2239 8.99999 19 8.77614 19 8.49999V7.99999L5.00631 7.99999Z"/>
        <rect x="16.5073" y="13" width="7" height="2" rx="0.5"/>
        <rect x="21.0073" y="10.5" width="7" height="2" rx="0.5" transform="rotate(90 21.0073 10.5)"/>
    </symbol>

    <symbol id="menu-icon9" viewBox="0 0 24 24">
        <path d="M6 17H3V21H6V17Z" stroke-linecap="round" stroke-linejoin="round"/>
        <path d="M14 15H11V21H14V15Z" stroke-linecap="round" stroke-linejoin="round"/>
        <path d="M22 11H19V21H22V11Z" stroke-linecap="round" stroke-linejoin="round"/>
        <path d="M3 12C7 12 16 10 20 3" stroke-linecap="round"
              stroke-linejoin="round"/>
        <path d="M16 3H20L21 7" stroke-linecap="round" stroke-linejoin="round"/>
    </symbol>


    <symbol id="menu-icon10" viewBox="0 0 24 24">
        <path fill-rule="evenodd" clip-rule="evenodd"
              d="M4.36756 4.22747C4.56743 4.07023 4.81676 3.98931 5.07087 3.99923C5.08386 3.99973 5.09685 3.99999 5.10985 3.99999H15.9999V5.99999H5.00264L4.98528 6.00009C4.83834 6.00224 4.69274 5.97197 4.55884 5.91144C4.42493 5.85092 4.30601 5.76163 4.21053 5.64992C4.11505 5.53821 4.04537 5.40684 4.00644 5.26514C4.00419 5.25694 4.00204 5.24872 4 5.24048V4.99999C4 4.94244 3.99514 4.88602 3.9858 4.83112C4.04009 4.59239 4.17472 4.37919 4.36756 4.22747ZM5.00631 7.99999C4.66346 8.00406 4.32315 7.94932 4 7.83882V19C4 19.2652 4.10536 19.5196 4.29289 19.7071C4.48043 19.8946 4.73478 20 5 20H19V19.5C19 19.2239 19.2239 19 19.5 19H20.5C20.7761 19 21 19.2239 21 19.5V20C21 20.5304 20.7893 21.0391 20.4142 21.4142C20.0391 21.7893 19.5304 22 19 22H5C4.20435 22 3.44129 21.6839 2.87868 21.1213C2.31607 20.5587 2 19.7956 2 19V5.41844C1.95669 5.11082 1.96132 4.79754 2.01443 4.48988C2.016 4.48079 2.01769 4.47172 2.01951 4.46268C2.16347 3.74739 2.55749 3.10675 3.13093 2.65561C3.69876 2.20888 4.40577 1.97687 5.12744 1.99999H15.9999C16.5303 1.99999 17.039 2.2107 17.4141 2.58577C17.7891 2.96085 17.9999 3.46956 17.9999 3.99999V5.99999H19C19.5304 5.99999 20.0391 6.2107 20.4142 6.58578C20.7893 6.96085 21 7.46956 21 7.99999V8.49999C21 8.77613 20.7761 8.99999 20.5 8.99999H19.5C19.2239 8.99999 19 8.77614 19 8.49999V7.99999L5.00631 7.99999Z"/>
        <path fill-rule="evenodd" clip-rule="evenodd"
              d="M19.3487 11.3415C19.2228 11.2155 19.0073 11.3047 19.0073 11.4829V13H13.0073C12.7312 13 12.5073 13.2239 12.5073 13.5V14.5C12.5073 14.7762 12.7312 15 13.0073 15H19.0073V16.5172C19.0073 16.6954 19.2228 16.7846 19.3487 16.6586L21.8659 14.1414C21.944 14.0633 21.944 13.9367 21.8659 13.8586L19.3487 11.3415Z"/>
    </symbol>

    <symbol id="menu-icon11" viewBox="0 0 24 24">
        <path d="M18 9H6C5.44772 9 5 9.44772 5 10V20C5 20.5523 5.44772 21 6 21H18C18.5523 21 19 20.5523 19 20V10C19 9.44772 18.5523 9 18 9Z"/>
        <path d="M8 9V7C8 5.93913 8.42143 4.92172 9.17157 4.17157C9.92172 3.42143 10.9391 3 12 3V3C13.0609 3 14.0783 3.42143 14.8284 4.17157C15.5786 4.92172 16 5.93913 16 7V9"/>
        <path d="M9 15L11 17L15 13"/>
    </symbol>

    <symbol id="menu-icon12" viewBox="0 0 24 24">
        <path d="M3 3V21H21"/>
        <path d="M7 16L12 11L16 14L19.55 6.89001"/>
        <path d="M20 7C20.5523 7 21 6.55228 21 6C21 5.44772 20.5523 5 20 5C19.4477 5 19 5.44772 19 6C19 6.55228 19.4477 7 20 7Z"/>
    </symbol>

    <symbol id="menu-icon13" viewBox="0 0 24 24">
        <path fill-rule="evenodd" clip-rule="evenodd"
              d="M4.36756 4.22747C4.56743 4.07023 4.81676 3.98931 5.07087 3.99923C5.08386 3.99973 5.09685 3.99999 5.10985 3.99999H15.9999V5.99999H5.00264L4.98528 6.00009C4.83834 6.00224 4.69274 5.97197 4.55884 5.91144C4.42493 5.85092 4.30601 5.76163 4.21053 5.64992C4.11505 5.53821 4.04537 5.40684 4.00644 5.26514C4.00419 5.25694 4.00204 5.24872 4 5.24048V4.99999C4 4.94244 3.99514 4.88602 3.9858 4.83112C4.04009 4.59239 4.17472 4.37919 4.36756 4.22747ZM5.00631 7.99999C4.66346 8.00406 4.32315 7.94932 4 7.83882V19C4 19.2652 4.10536 19.5196 4.29289 19.7071C4.48043 19.8946 4.73478 20 5 20H19V19.5C19 19.2239 19.2239 19 19.5 19H20.5C20.7761 19 21 19.2239 21 19.5V20C21 20.5304 20.7893 21.0391 20.4142 21.4142C20.0391 21.7893 19.5304 22 19 22H5C4.20435 22 3.44129 21.6839 2.87868 21.1213C2.31607 20.5587 2 19.7956 2 19V5.41844C1.95669 5.11082 1.96132 4.79754 2.01443 4.48988C2.016 4.48079 2.01769 4.47172 2.01951 4.46268C2.16347 3.74739 2.55749 3.10675 3.13093 2.65561C3.69876 2.20888 4.40577 1.97687 5.12744 1.99999H15.9999C16.5303 1.99999 17.039 2.2107 17.4141 2.58577C17.7891 2.96085 17.9999 3.46956 17.9999 3.99999V5.99999H19C19.5304 5.99999 20.0391 6.2107 20.4142 6.58578C20.7893 6.96085 21 7.46956 21 7.99999V8.49999C21 8.77613 20.7761 8.99999 20.5 8.99999H19.5C19.2239 8.99999 19 8.77614 19 8.49999V7.99999L5.00631 7.99999Z"/>
        <path fill-rule="evenodd" clip-rule="evenodd"
              d="M20.9335 12.9946C20.8075 12.8686 20.592 12.9578 20.592 13.136V14.6532H14.592C14.3159 14.6532 14.092 14.877 14.092 15.1532V16.1532C14.092 16.4293 14.3159 16.6532 14.592 16.6532H20.592V18.1703C20.592 18.3485 20.8075 18.4377 20.9335 18.3117L23.4506 15.7946C23.5287 15.7165 23.5287 15.5898 23.4506 15.5117L20.9335 12.9946Z"/>
        <path fill-rule="evenodd" clip-rule="evenodd"
              d="M13.1383 9.32113C13.2643 9.19513 13.4797 9.28437 13.4797 9.46255V10.9797H19.4797C19.7559 10.9797 19.9797 11.2036 19.9797 11.4797V12.4797C19.9797 12.7558 19.7559 12.9797 19.4797 12.9797H13.4797V14.4969C13.4797 14.675 13.2643 14.7643 13.1383 14.6383L10.6212 12.1211C10.5431 12.043 10.5431 11.9164 10.6212 11.8383L13.1383 9.32113Z"/>
    </symbol>

    <symbol id="menu-icon14" viewBox="0 0 24 24">
        <path d="M19 13V20C19 20.2652 18.8946 20.5196 18.7071 20.7071C18.5196 20.8947 18.2652 21 18 21H6C5.73479 21 5.48043 20.8947 5.2929 20.7071C5.10536 20.5196 5 20.2652 5 20V13M16.5 10.75C16.5 11.3467 16.2629 11.919 15.841 12.341C15.419 12.763 14.8467 13 14.25 13C13.6533 13 13.081 12.763 12.659 12.341C12.2371 11.919 12 11.3467 12 10.75C12 11.3467 11.7629 11.919 11.341 12.341C10.919 12.763 10.3467 13 9.75 13C9.15326 13 8.58097 12.763 8.15901 12.341C7.73706 11.919 7.5 11.3467 7.5 10.75C7.5 11.3467 7.26295 11.919 6.84099 12.341C6.41903 12.763 5.84674 13 5.25 13C4.65326 13 4.08097 12.763 3.65901 12.341C3.23705 11.919 3 11.3467 3 10.75C2.99959 10.2525 3.07031 9.7575 3.21 9.28001L4.75 3.73001C4.81049 3.51371 4.94204 3.32407 5.12344 3.19164C5.30485 3.05921 5.52555 2.99171 5.75 3.00001H18.21C18.4344 2.99171 18.6552 3.05921 18.8366 3.19164C19.018 3.32407 19.1495 3.51371 19.21 3.73001L20.79 9.28001C20.9297 9.7575 21.0004 10.2525 21 10.75C21 11.3467 20.7629 11.919 20.341 12.341C19.919 12.763 19.3467 13 18.75 13C18.1533 13 17.581 12.763 17.159 12.341C16.7371 11.919 16.5 11.3467 16.5 10.75Z"
              stroke-width="2" stroke-linecap="round" stroke-linejoin="round"/>
    </symbol>


    <symbol id="menu-icon15" viewBox="0 0 24 24">
        <path d="M21 4V18.5C21 19.163 20.7366 19.7989 20.2678 20.2678C19.7989 20.7366 19.163 21 18.5 21C17.837 21 17.2011 20.7366 16.7322 20.2678C16.2634 19.7989 16 19.163 16 18.5V16H5V4C5 3.73478 5.10536 3.48043 5.29289 3.29289C5.48043 3.10536 5.73478 3 6 3H20C20.2652 3 20.5196 3.10536 20.7071 3.29289C20.8946 3.48043 21 3.73478 21 4Z"/>
        <path d="M18.5 21H5.5C4.83696 21 4.20107 20.7366 3.73223 20.2678C3.26339 19.7989 3 19.163 3 18.5V16H16V18.5C16 19.163 16.2634 19.7989 16.7322 20.2678C17.2011 20.7366 17.837 21 18.5 21Z"/>
        <path d="M13 7V12"/>
        <path d="M15.5 9.5H10.5"/>
    </symbol>

    <symbol id="menu-icon16" viewBox="0 0 24 24">
        <path fill-rule="evenodd" clip-rule="evenodd"
              d="M4.36756 4.22747C4.56743 4.07023 4.81676 3.98931 5.07087 3.99923C5.08386 3.99973 5.09685 3.99999 5.10985 3.99999H15.9999V5.99999H5.00264L4.98528 6.00009C4.83834 6.00224 4.69274 5.97197 4.55884 5.91144C4.42493 5.85092 4.30601 5.76163 4.21053 5.64992C4.11505 5.53821 4.04537 5.40684 4.00644 5.26514C4.00419 5.25694 4.00204 5.24872 4 5.24048V4.99999C4 4.94244 3.99514 4.88602 3.9858 4.83112C4.04009 4.59239 4.17472 4.37919 4.36756 4.22747ZM5.00631 7.99999C4.66346 8.00406 4.32315 7.94932 4 7.83882V19C4 19.2652 4.10536 19.5196 4.29289 19.7071C4.48043 19.8946 4.73478 20 5 20H19V19.5C19 19.2239 19.2239 19 19.5 19H20.5C20.7761 19 21 19.2239 21 19.5V20C21 20.5304 20.7893 21.0391 20.4142 21.4142C20.0391 21.7893 19.5304 22 19 22H5C4.20435 22 3.44129 21.6839 2.87868 21.1213C2.31607 20.5587 2 19.7956 2 19V5.41844C1.95669 5.11082 1.96132 4.79754 2.01443 4.48988C2.016 4.48079 2.01769 4.47172 2.01951 4.46268C2.16347 3.74739 2.55749 3.10675 3.13093 2.65561C3.69876 2.20888 4.40577 1.97687 5.12744 1.99999H15.9999C16.5303 1.99999 17.039 2.2107 17.4141 2.58577C17.7891 2.96085 17.9999 3.46956 17.9999 3.99999V5.99999H19C19.5304 5.99999 20.0391 6.2107 20.4142 6.58578C20.7893 6.96085 21 7.46956 21 7.99999V8.49999C21 8.77613 20.7761 8.99999 20.5 8.99999H19.5C19.2239 8.99999 19 8.77614 19 8.49999V7.99999L5.00631 7.99999Z"/>
        <rect x="17.8936" y="10.2722" width="8" height="2" rx="0.5" transform="rotate(45 17.8936 10.2722)"/>
        <rect x="23.5503" y="11.6864" width="8" height="2" rx="0.5" transform="rotate(135 23.5503 11.6864)"/>
    </symbol>


    <symbol id="add-file" viewBox="0 0 24 24">
        <path d="M19 8.41V20C19 20.2652 18.8946 20.5196 18.7071 20.7071C18.5196 20.8946 18.2652 21 18 21H6C5.73478 21 5.48043 20.8946 5.29289 20.7071C5.10536 20.5196 5 20.2652 5 20V4C5 3.73478 5.10536 3.48043 5.29289 3.29289C5.48043 3.10536 5.73478 3 6 3H13.59C13.8523 3.0011 14.1037 3.10526 14.29 3.29L18.71 7.71C18.8947 7.89626 18.9989 8.14766 19 8.41Z"/>
        <path d="M12 15V10"/>
        <path d="M14.5 12.5H9.5"/>
    </symbol>

    <symbol id="file" viewBox="0 0 24 24">
        <path d="M19 8.41V20C19 20.2652 18.8946 20.5196 18.7071 20.7071C18.5196 20.8946 18.2652 21 18 21H6C5.73478 21 5.48043 20.8946 5.29289 20.7071C5.10536 20.5196 5 20.2652 5 20V4C5 3.73478 5.10536 3.48043 5.29289 3.29289C5.48043 3.10536 5.73478 3 6 3H13.59C13.8523 3.0011 14.1037 3.10526 14.29 3.29L18.71 7.71C18.8947 7.89626 18.9989 8.14766 19 8.41Z"
              stroke-width="2" stroke-linecap="round" stroke-linejoin="round"/>
        <path d="M10.0044 13.072L11.9672 15.0239M11.9672 15.0239L13.9956 13.072M11.9672 15.0239V10.1125"
              stroke-width="2" stroke-linecap="round" stroke-linejoin="round"/>
    </symbol>

    <symbol id="check-active" viewBox="0 0 17 16">
        <path d="M8.5 14C11.8137 14 14.5 11.3137 14.5 8C14.5 4.68629 11.8137 2 8.5 2C5.18629 2 2.5 4.68629 2.5 8C2.5 11.3137 5.18629 14 8.5 14Z"
              fill="#42D662" fill-opacity="0.2" stroke="#1EB23E" stroke-linecap="round" stroke-linejoin="round"/>
        <path d="M5.8335 7.99996L7.8335 9.99996L11.1668 6.66663" stroke="#1EB23E" stroke-linecap="round"
              stroke-linejoin="round"/>
    </symbol>

    <symbol id="no-active" viewBox="0 0 16 17">
        <path d="M8 14.9963C11.3137 14.9963 14 12.31 14 8.99628C14 5.68257 11.3137 2.99628 8 2.99628C4.68629 2.99628 2 5.68257 2 8.99628C2 12.31 4.68629 14.9963 8 14.9963Z"
              fill="#F84B4B" fill-opacity="0.2" stroke="#F84B4B" stroke-linecap="round" stroke-linejoin="round"/>
        <path d="M6 11.2463L10.3333 7.07961" stroke="#F84B4B" stroke-linecap="round" stroke-linejoin="round"/>
        <path d="M6.08333 6.99628L10.25 11.3296" stroke="#F84B4B" stroke-linecap="round" stroke-linejoin="round"/>
    </symbol>


    <symbol id="arrow-btn" viewBox="0 0 24 25">
        <path d="M12 21.5C16.9706 21.5 21 17.4706 21 12.5C21 7.52944 16.9706 3.5 12 3.5C7.02944 3.5 3 7.52944 3 12.5C3 17.4706 7.02944 21.5 12 21.5Z"
              stroke-width="2" stroke-linecap="round" stroke-linejoin="round"/>
        <path d="M11 15.5L14 12.5L11 9.5" stroke-width="2" stroke-linecap="round"
              stroke-linejoin="round"/>
    </symbol>

    <symbol id="arrow-left" viewBox="0 0 8 14">
        <path d="M6.83694 12.6749L1.16203 7.00005L6.83689 1.3252" stroke-width="1.5"
              stroke-linecap="round" stroke-linejoin="round"/>
    </symbol>

    <symbol id="arrow-right" viewBox="0 0 8 14">
        <path d="M1.16208 1.32509L6.837 6.99995L1.16214 12.6748" stroke-width="1.5"
              stroke-linecap="round" stroke-linejoin="round"/>
    </symbol>

    <symbol id="left" viewBox="0 0 24 24">
        <path d="M10 19L3 12L10 5" stroke-width="2" stroke-linecap="round" stroke-linejoin="round"/>
        <path d="M3 12H21" stroke-width="2" stroke-linecap="round" stroke-linejoin="round"/>
    </symbol>


</svg>